<svg  width="18" height="18" xmlns="http://www.w3.org/2000/svg" x="0px" y="0px" viewBox="0 0 18 18">

<ellipse fill="#565a5c" cx="7.283" cy="9.472" rx="3" ry="3"/>
<path fill="#565a5c" d="M6.636,3.861C6.502,4.108,6.263,4.298,5.966,4.36c-0.573,0.122-1.114,0.339-1.61,0.647
	C3.887,5.298,3.27,5.154,2.979,4.685C2.688,4.216,2.831,3.599,3.301,3.307c0.693-0.43,1.45-0.734,2.25-0.903
	c0.54-0.115,1.071,0.23,1.186,0.77C6.789,3.417,6.747,3.659,6.636,3.861z M1.881,9.917c-0.164,0.301-0.479,0.509-0.846,0.521
	c-0.552,0.018-1.014-0.415-1.032-0.967c-0.026-0.819,0.09-1.628,0.346-2.404c0.174-0.528,0.739-0.81,1.262-0.637
	c0.525,0.173,0.81,0.738,0.637,1.262c-0.182,0.554-0.265,1.13-0.246,1.714C2.009,9.591,1.964,9.766,1.881,9.917z"/>
<path fill="#565a5c" d="M3.27,12.578c0.199,0.232,0.423,0.433,0.666,0.625l0.26,0.204c1.298,1.019,1.527,2.914,0.508,4.212
	c-0.34,0.433-0.971,0.509-1.404,0.169s-0.509-0.971-0.169-1.404c0.34-0.433,0.263-1.064-0.169-1.404c0,0-0.157-0.123-0.212-0.167
	c-0.33-0.259-0.666-0.561-0.947-0.883c-0.371-0.418-0.349-1.062,0.063-1.425C2.285,12.148,2.901,12.174,3.27,12.578z"/>
<path fill="#565a5c" d="M18,1v3c0,0.55-0.45,1-1,1s-1-0.45-1-1V3.42l-1.79,1.72C13.66,5.73,12.92,6,12.12,6h-0.11
	c-0.76,0-1.48-0.19-2.04-0.71L9.34,4.71C9.13,4.53,9,4.28,9,3.98c0-0.55,0.45-0.99,1-0.99c0.27,0,0.51,0.11,0.69,0.28l0.07,0.08
	l0.22,0.23l0.35,0.32c0.2,0.18,0.45,0.26,0.72,0.25c0.27,0,0.52-0.14,0.7-0.34L14.47,2H14c-0.55,0-1-0.45-1-1s0.45-1,1-1h3
	C17.55,0,18,0.45,18,1z"/>
</svg>
