<svg xmlns="http://www.w3.org/2000/svg" height="18" width="18" viewBox="0 0 18 18">
    <path d="M4.1 2a.91.91 0 0 1 .9.9v1.2a.91.91 0 0 1-.9.9h-.2a.91.91 0 0 1-.9-.9V2.9a.91.91 0 0 1 .9-.9h.2zm0-2h-.2A2.907 2.907 0 0 0 1 2.9v1.2A2.907 2.907 0 0 0 3.9 7h.2A2.907 2.907 0 0 0 7 4.1V2.9A2.907 2.907 0 0 0 4.1 0zm10 2a.91.91 0 0 1 .9.9v1.2a.91.91 0 0 1-.9.9h-.2a.91.91 0 0 1-.9-.9V2.9a.91.91 0 0 1 .9-.9h.2zm0-2h-.2A2.907 2.907 0 0 0 11 2.9v1.2A2.907 2.907 0 0 0 13.9 7h.2A2.907 2.907 0 0 0 17 4.1V2.9A2.907 2.907 0 0 0 14.1 0zM4 8a4.148 4.148 0 0 0-4 4v4.67a1.327 1.327 0 0 0 1.33 1.32l5.34.01A1.336 1.336 0 0 0 8 16.67V12a4.148 4.148 0 0 0-4-4zm2 8l-4-.01V12a2.074 2.074 0 0 1 2-2 2.074 2.074 0 0 1 2 2v4zm12-4v4.67A1.336 1.336 0 0 1 16.67 18l-5.34-.01A1.327 1.327 0 0 1 10 16.67V12a4 4 0 0 1 8 0z" fill="#72777a" fill-rule="evenodd"/>
</svg>
