<svg xmlns="http://www.w3.org/2000/svg" height="18" width="18" viewBox="0 0 18 18">
    <g fill="#72777a" fill-rule="evenodd">
        <path d="M9 0a9 9 0 1 0 0 18A9 9 0 0 0 9 0zm1 15.92V15a1 1 0 0 0-2 0v.92A6.979 6.979 0 0 1 2.08 10H3a1 1 0 0 0 0-2h-.92A6.979 6.979 0 0 1 8 2.08V3a1 1 0 1 0 2 0v-.92A6.98 6.98 0 0 1 15.92 8H15a1 1 0 0 0 0 2h.92A6.979 6.979 0 0 1 10 15.92z"/>
        <path d="M12.691 5.305a1.033 1.033 0 0 0-1.064-.251L7.285 6.5a1.05 1.05 0 0 0-.753.694l-.032.091-1.446 4.343c-.126.374-.029.786.251 1.064.276.282.69.38 1.064.251l4.343-1.448.089-.03c.346-.114.609-.399.694-.753l1.448-4.343c.129-.374.03-.788-.252-1.064zM9 10a1 1 0 1 1 0-2 1 1 0 0 1 0 2z"/>
    </g>
</svg>
