<svg width="18" height="18" xmlns="http://www.w3.org/2000/svg" viewBox="0 0 18 18">
  <path fill="#565a5c" d="M11.94,3.68a1.638,1.638,0,0,0-.83-1.05,1.71,1.71,0,0,0-.49-1.25A1.665,1.665,0,0,0,9.37.89,1.678,1.678,0,0,0,7,.26,1.678,1.678,0,0,0,4.63.89a1.665,1.665,0,0,0-1.25.49,1.71,1.71,0,0,0-.49,1.25A1.678,1.678,0,0,0,2.26,5a1.678,1.678,0,0,0,.63,2.37,1.71,1.71,0,0,0,.49,1.25,1.628,1.628,0,0,0,1.25.49A1.392,1.392,0,0,0,5,9.57v8.15a.307.307,0,0,0,.06.19.246.246,0,0,0,.19.09.234.234,0,0,0,.17-.07l.01-.01L7,16.33l1.58,1.6a.234.234,0,0,0,.17.07.246.246,0,0,0,.19-.09A.307.307,0,0,0,9,17.72V15.81a2.974,2.974,0,0,1,0-5.62V9.57a1.392,1.392,0,0,0,.37-.46,1.628,1.628,0,0,0,1.25-.49,1.71,1.71,0,0,0,.49-1.25A1.678,1.678,0,0,0,11.74,5,1.643,1.643,0,0,0,11.94,3.68ZM9.2,5.26a2.114,2.114,0,0,1-.16.61A2.164,2.164,0,0,1,7.87,7.04a2.193,2.193,0,0,1-1.74,0A2.164,2.164,0,0,1,4.96,5.87a2.114,2.114,0,0,1-.16-.61A2.273,2.273,0,0,1,4.78,5a2.273,2.273,0,0,1,.02-.26,2.114,2.114,0,0,1,.16-.61A2.164,2.164,0,0,1,6.13,2.96a2.193,2.193,0,0,1,1.74,0A2.164,2.164,0,0,1,9.04,4.13a2.114,2.114,0,0,1,.16.61A2.273,2.273,0,0,1,9.22,5,2.273,2.273,0,0,1,9.2,5.26Z"/>
  <rect fill="#565a5c" x="9" y="12" width="7" height="2" rx="1" ry="1"/>
</svg>
