<svg xmlns="http://www.w3.org/2000/svg" height="80" width="80" viewBox="0 0 80 80">
  <g style="isolation:isolate;">
    <g>
      <rect x="11" y="21" width="58" height="38" rx="6" ry="6" style="fill:#9ac965;"></rect>
      <path d="M63 21h-3a6 6 0 0 1 6 6v26a6 6 0 0 1-6 6h3a6 6 0 0 0 6-6V27a6 6 0 0 0-6-6z" style="fill:#fff;opacity:0.4;mix-blend-mode:lighten;"></path>
      <rect x="11" y="21" width="58" height="38" rx="6" ry="6" style="fill:none;stroke:#565a5c;stroke-linecap:round;stroke-linejoin:round;stroke-width:2px;"></rect>
      <path d="M34 50l8-5 8-5-8-5-8-5v20z" style="fill:#f08fbb;"></path>
      <path d="M42 35l-8-5v3.75L36 35l8 5-8 5-2 1.25V50l8-5 8-5-8-5z" style="fill:#fff;opacity:0.4;mix-blend-mode:lighten;"></path>
      <path d="M34 50l8-5 8-5-8-5-8-5v20z" style="fill:none;stroke:#565a5c;stroke-linecap:round;stroke-linejoin:round;stroke-width:2px;"></path>
    </g>
  </g>
</svg>
