<svg xmlns="http://www.w3.org/2000/svg" height="80" width="80" viewBox="0 0 80 80">
  <g class="cls-1" style="isolation:isolate;">
    <g>
      <path d="M11 15h58v54H11z" style="fill:#d66dac;"></path>
      <path d="M11 15h58v54H11z" style="fill:none;stroke:#565a5c;stroke-linecap:round;stroke-linejoin:round;stroke-width:2px;"></path>
      <path d="M15 61h50v8H15z" style="stroke:#565a5c;stroke-linecap:round;stroke-linejoin:round;stroke-width:2px;fill:#d3e057;"></path>
      <path d="M36 11H15v50h21a4 4 0 0 1 4 4V15a4 4 0 0 0-4-4z" style="fill:#e5ed97;"></path>
      <path d="M36 11h-3a4 4 0 0 1 4 4v46.14A3.99 3.99 0 0 1 40 65V15a4 4 0 0 0-4-4z" style="fill:#fff;opacity:0.4;mix-blend-mode:lighten;"></path>
      <path d="M44 11h21v50H44a4 4 0 0 0-4 4V15a4 4 0 0 1 4-4z" style="fill:#e5ed97;"></path>
      <path d="M43 15a4 4 0 0 1 4-4h-3a4 4 0 0 0-4 4v50a3.99 3.99 0 0 1 3-3.86z" style="opacity:0.1;mix-blend-mode:multiply;"></path>
      <g style="opacity:0.4;mix-blend-mode:lighten;">
        <path d="M40 61.14V65a4 4 0 0 1 4-4h-3a3.966 3.966 0 0 0-1 .14zM62 11h3v50h-3z" style="fill:#fff;"></path>
      </g>
      <path d="M15 65h21M21 18h13M21 22h13M21 26h13M21 30h13M21 34h13M21 38h13M21 42h13M21 46h13M21 50h13M21 54h13M46 18h13M46 22h13M46 26h13M46 30h13M46 34h13M46 38h13M46 42h13M46 46h13M46 50h13M46 54h13M44 65h21M36 11H15v50h21a4 4 0 0 1 4 4V15a4 4 0 0 0-4-4zM44 11h21v50H44a4 4 0 0 0-4 4V15a4 4 0 0 1 4-4z" style="fill:none;stroke:#565a5c;stroke-linecap:round;stroke-linejoin:round;stroke-width:2px;"></path>
    </g>
  </g>
</svg>
