<?xml version="1.0" encoding="utf-8"?>
<!-- Generator: Adobe Illustrator 19.1.0, SVG Export Plug-In . SVG Version: 6.00 Build 0)  -->
<svg version="1.1" id="Layer_1" xmlns="http://www.w3.org/2000/svg" xmlns:xlink="http://www.w3.org/1999/xlink" x="0px" y="0px"
	 viewBox="0 0 24 24" style="enable-background:new 0 0 24 24;" xml:space="preserve">
<style type="text/css">
	.st0{fill:none;}
	.st1{fill:#73787B;}
</style>
<g>
	<path class="st0" d="M10.01,16H9.98"/>
</g>
<g>
	<path class="st1" d="M16.28,23.96c0.01,0,0.01,0,0.02,0c0.04-0.01,0.08-0.03,0.12-0.05C16.37,23.93,16.33,23.95,16.28,23.96z"/>
</g>
<path class="st1" d="M15,0H5C3.9,0,3,0.9,3,2v21c0,0.44,0.29,0.83,0.7,0.96C3.8,23.99,3.9,24,4,24c0.32,0,0.64-0.16,0.83-0.44L10,16
	l5.17,7.55c0.05,0.08,0.11,0.14,0.17,0.2c0.13,0.11,0.27,0.18,0.42,0.22C15.84,23.99,15.92,24,16,24c0.1,0,0.19-0.01,0.28-0.04
	c0.05-0.01,0.09-0.03,0.14-0.05c0.04-0.02,0.09-0.05,0.13-0.08c0.03-0.03,0.07-0.05,0.1-0.08c0.03-0.02,0.07-0.05,0.09-0.08
	c0.11-0.13,0.19-0.28,0.23-0.43C16.99,23.16,17,23.08,17,23V2C17,0.9,16.1,0,15,0z M10.9,13.56c-0.205-0.308-0.472-0.54-0.861-0.556
	c-0.638-0.026-0.964,0.563-1.298,1.008c-0.384,0.513-0.769,1.025-1.153,1.538c-0.446,0.595-0.892,1.189-1.338,1.784
	c-0.337,0.449-0.674,0.898-1.011,1.348C5.16,18.787,5.08,18.894,5,19V2.5C5,2.22,5.22,2,5.5,2h9C14.78,2,15,2.22,15,2.5v17.21
	C15,19.71,10.924,13.595,10.9,13.56z"/>
</svg>
