<svg xmlns="http://www.w3.org/2000/svg" viewBox="0 0 24 24">
  <path d="M10.01 16h-.03"/>
  <path fill="#73787B" d="M16.28 23.96h.02c.04-.01.08-.03.12-.05-.05.02-.09.04-.14.05z"/>
  <path fill="#73787B" d="M15 0H5C3.9 0 3 .9 3 2v21c0 .44.29.83.7.96.1.03.2.04.3.04.32 0 .64-.16.83-.44L10 16l5.17 7.55c.05.08.11.14.17.2.13.11.27.18.42.22.08.02.16.03.24.03.1 0 .19-.01.28-.04.05-.01.09-.03.14-.05.04-.02.09-.05.13-.08.03-.03.07-.05.1-.08.03-.02.07-.05.09-.08.11-.13.19-.28.23-.43.02-.08.03-.16.03-.24V2c0-1.1-.9-2-2-2zm-4.1 13.56c-.205-.308-.472-.54-.86-.556-.64-.026-.965.563-1.3 1.008-.383.513-.768 1.025-1.152 1.538L6.25 17.334l-1.01 1.348L5 19V2.5c0-.28.22-.5.5-.5h9c.28 0 .5.22.5.5v17.21l-4.1-6.15z"/>
</svg>
