<?xml version="1.0" encoding="utf-8"?>
<!-- Generator: Adobe Illustrator 19.1.0, SVG Export Plug-In . SVG Version: 6.00 Build 0)  -->
<svg version="1.1" id="Layer_1" xmlns="http://www.w3.org/2000/svg" xmlns:xlink="http://www.w3.org/1999/xlink" x="0px" y="0px"
	 viewBox="0 0 24 24" style="enable-background:new 0 0 24 24;" xml:space="preserve">
<style type="text/css">
	.st0{fill:#74777B;}
</style>
<path class="st0" d="M23,2H13V1c0-0.55-0.45-1-1-1s-1,0.45-1,1v1H1C0.45,2,0,2.45,0,3s0.45,1,1,1h1v8c0,2.21,1.79,4,4,4h5v1.58
	l0.29-0.29C11.1,17.48,11,17.74,11,18v-0.42l-4.71,4.71c-0.39,0.39-0.39,1.03,0,1.42C6.49,23.9,6.74,24,7,24s0.51-0.1,0.71-0.29
	L11,20.42V23c0,0.55,0.45,1,1,1s1-0.45,1-1v-2.58l3.29,3.29C16.49,23.9,16.74,24,17,24s0.51-0.1,0.71-0.29
	c0.39-0.39,0.39-1.03,0-1.42L13,17.58V18c0-0.26-0.1-0.52-0.29-0.71L13,17.58V16h5c2.21,0,4-1.79,4-4V4h1c0.55,0,1-0.45,1-1
	S23.55,2,23,2z M20,12c0,1.1-0.9,2-2,2H6c-1.1,0-2-0.9-2-2V4h16V12z"/>
<path class="st0" d="M11.29,17.29C11.1,17.48,11,17.74,11,18v-0.42L11.29,17.29z"/>
<path class="st0" d="M13,17.58V18c0-0.26-0.1-0.52-0.29-0.71L13,17.58z"/>
<path class="st0" d="M13,17.58V18c0-0.26-0.1-0.52-0.29-0.71L13,17.58z"/>
<path class="st0" d="M11.29,17.29C11.1,17.48,11,17.74,11,18v-0.42L11.29,17.29z"/>
<path class="st0" d="M16,8H7C6.447,8,6,7.552,6,7s0.447-1,1-1h9c0.553,0,1,0.448,1,1S16.553,8,16,8z"/>
<path class="st0" d="M12,12H7c-0.553,0-1-0.448-1-1s0.447-1,1-1h5c0.553,0,1,0.448,1,1S12.553,12,12,12z"/>
</svg>
