<svg xmlns="http://www.w3.org/2000/svg" viewBox="0 0 24 24">
  <path fill="#72777a" d="M23 2H13V1a1 1 0 0 0-2 0v1H1a1 1 0 0 0 0 2h1v8a4 4 0 0 0 4 4h5v1.58l-4.71 4.71a1.008 1.008 0 0 0 0 1.42 1.014 1.014 0 0 0 1.42 0L11 20.42V23a1 1 0 0 0 2 0v-2.58l3.29 3.29a1.014 1.014 0 0 0 1.42 0 1.008 1.008 0 0 0 0-1.42L13 17.58V16h5a4 4 0 0 0 4-4V4h1a1 1 0 0 0 0-2zm-3 10a2.006 2.006 0 0 1-2 2H6a2.006 2.006 0 0 1-2-2V4h16v8z"/>
  <path fill="#72777a" d="M16 8H7a1 1 0 0 1 0-2h9a1 1 0 0 1 0 2zM12 12H7a1 1 0 0 1 0-2h5a1 1 0 0 1 0 2z"/>
</svg>
