<?xml version="1.0" encoding="utf-8"?>
<!-- Generator: Adobe Illustrator 19.1.0, SVG Export Plug-In . SVG Version: 6.00 Build 0)  -->
<svg version="1.1" id="Layer_1" xmlns="http://www.w3.org/2000/svg" xmlns:xlink="http://www.w3.org/1999/xlink" x="0px" y="0px"
	 viewBox="0 0 24 24" style="enable-background:new 0 0 24 24;" xml:space="preserve">
<style type="text/css">
	.st0{fill:#74777B;}
</style>
<g>
	<path class="st0" d="M22,4h-3V1c0-0.55-0.44-1-1-1c-0.55,0-1,0.45-1,1v3H7V1c0-0.55-0.44-1-1-1C5.45,0,5,0.45,5,1v3H2
		C0.9,4,0,4.9,0,6v16c0,1.1,0.9,2,2,2h20c1.1,0,2-0.9,2-2V6C24,4.9,23.1,4,22,4z M22,21.5c0,0.28-0.22,0.5-0.5,0.5h-19
		C2.23,22,2,21.78,2,21.5V12h20V21.5z M2,10V6.5C2,6.22,2.23,6,2.5,6h19C21.78,6,22,6.22,22,6.5V10H2z"/>
</g>
</svg>
