<svg xmlns="http://www.w3.org/2000/svg" width="18" height="18" viewBox="0 0 18 18">
  <circle fill="#fdb961" cx="9" cy="9" r="8"/>
  <path fill="#565a5c" d="M5.878 11.359a2.74 2.74 0 0 1-.64-.076A2.642 2.642 0 0 1 3.12 8.769a.5.5 0 0 1 1 0 1.66 1.66 0 0 0 1.348 1.541 1.452 1.452 0 0 0 1.705-.765.5.5 0 1 1 .894.447 2.4 2.4 0 0 1-2.189 1.367zM4.146 6.75a.5.5 0 0 1-.3-.9A6.45 6.45 0 0 1 6.8 4.69a.514.514 0 0 1 .507.493.5.5 0 0 1-.493.507 5.615 5.615 0 0 0-2.365.959.5.5 0 0 1-.303.101zm8.216 4.609a2.4 2.4 0 0 1-2.189-1.367.5.5 0 1 1 .894-.447 1.452 1.452 0 0 0 1.705.765 1.659 1.659 0 0 0 1.348-1.541.5.5 0 0 1 1 0A2.642 2.642 0 0 1 13 11.283a2.746 2.746 0 0 1-.638.076zM14.1 6.75a.5.5 0 0 1-.3-.1 5.624 5.624 0 0 0-2.365-.959.5.5 0 0 1-.493-.507.526.526 0 0 1 .506-.493A6.45 6.45 0 0 1 14.4 5.852a.5.5 0 0 1-.3.9z"/>
  <path fill="#1fbddb" d="M14.138 12.951a1.48 1.48 0 0 0 2.955-.089 14.732 14.732 0 0 0-1.587-3.575 14.721 14.721 0 0 0-1.368 3.664z"/>
  <path fill="#565a5c" d="M8.008 12.372a2.776 2.776 0 0 1 .64-.076 2.643 2.643 0 0 1 2.647 1.95.5.5 0 1 1-.972.234 1.66 1.66 0 0 0-1.671-1.18 1.453 1.453 0 0 0-1.479 1.142.5.5 0 1 1-.974-.226 2.4 2.4 0 0 1 1.809-1.844z"/>
</svg>