<?xml version="1.0" encoding="utf-8"?>
<!-- Generator: Adobe Illustrator 19.1.0, SVG Export Plug-In . SVG Version: 6.00 Build 0)  -->
<svg version="1.1" id="Layer_1" xmlns="http://www.w3.org/2000/svg" xmlns:xlink="http://www.w3.org/1999/xlink" x="0px" y="0px"
	 viewBox="0 0 18 18" style="enable-background:new 0 0 18 18;" xml:space="preserve">
<style type="text/css">
	.st0{fill:#74797C;}
</style>
<path class="st0" d="M13,5H5C4.448,5,4,4.552,4,4s0.448-1,1-1h8c0.553,0,1,0.448,1,1S13.553,5,13,5z"/>
<path class="st0" d="M13,10H5c-0.552,0-1-0.448-1-1s0.448-1,1-1h8c0.553,0,1,0.448,1,1S13.553,10,13,10z"/>
<path class="st0" d="M13,15H5c-0.552,0-1-0.447-1-1s0.448-1,1-1h8c0.553,0,1,0.447,1,1S13.553,15,13,15z"/>
</svg>
