<svg xmlns="http://www.w3.org/2000/svg" height="24" width="24" viewBox="0 0 24 24">
    <path fill="#72777A" fill-rule="evenodd" d="M19.71 4.29l-4-4A1.007 1.007 0 0 0 15 0H6a2.006 2.006 0 0 0-2 2v16a2.006 2.006 0 0 0 2 2h12a2.006 2.006 0 0 0 2-2V5a1.007 1.007 0 0 0-.29-.71zM15 2.42L17.58 5H15.5a.5.5 0 0 1-.5-.5V2.42zm3 15.08a.5.5 0 0 1-.5.5h-11a.5.5 0 0 1-.5-.5v-15a.5.5 0 0 1 .5-.5h6a.5.5 0 0 1 .5.5V5a2.006 2.006 0 0 0 2 2h2.5a.5.5 0 0 1 .5.5v10z"/>
    <path fill="#72777A" fill-rule="evenodd" d="M24 16v4.99A3.017 3.017 0 0 1 21 24H3a3.015 3.015 0 0 1-3-3v-5a.127.127 0 0 1 .01-.06.991.991 0 0 1 1.98 0A.127.127 0 0 1 2 16v4a2.01 2.01 0 0 0 2 1.99h16A2.01 2.01 0 0 0 22 20v-4a.127.127 0 0 1 .01-.06.991.991 0 0 1 1.98 0A.127.127 0 0 1 24 16z"/>
    <path fill="#72777A" fill-rule="evenodd" d="M15 16H9a1 1 0 0 1 0-2h6a1 1 0 0 1 0 2zm0-4H9a1 1 0 0 1 0-2h6a1 1 0 0 1 0 2zm-4-4H9a1 1 0 0 1 0-2h2a1 1 0 0 1 0 2z"/>
</svg>
