<svg xmlns="http://www.w3.org/2000/svg" height="24" width="24" viewBox="0 0 24 24">
    <path d="M23 16.37V10c0-5.52-4.93-10-11-10S1 4.48 1 10v6.36a3.913 3.913 0 0 0-1 2.63 3.971 3.971 0 0 0 2.55 3.73A2.961 2.961 0 0 0 5 24a3.009 3.009 0 0 0 3-3v-4a3.009 3.009 0 0 0-3-3c-.74 0-1.452.274-2 .77V10c0-4.41 4.04-8 9-8s9 3.59 9 8v4.77a2.974 2.974 0 0 0-2-.77 3.009 3.009 0 0 0-3 3v4a3.009 3.009 0 0 0 3 3 2.961 2.961 0 0 0 2.45-1.28A3.964 3.964 0 0 0 24 19.01a3.871 3.871 0 0 0-1-2.64zm-19.53.71l.43-.12.2-.4A1 1 0 0 1 6 17v4a1 1 0 0 1-1.9.44l-.2-.4-.43-.12a1.989 1.989 0 0 1 0-3.84zm17.06 3.84l-.43.12-.2.4A1 1 0 0 1 18 21v-4a1 1 0 0 1 1.9-.44l.2.4.43.12a1.989 1.989 0 0 1 0 3.84z" fill="#72777A" fill-rule="evenodd"/>
</svg>
