<svg width="22" height="22" viewBox="0 0 22 22" xmlns="http://www.w3.org/2000/svg" xmlns:xlink="http://www.w3.org/1999/xlink">
  <g>
	  <path fill="#d3d9e3" fill-rule="evenodd" d="M6 0c-.83 0-1.622.168-2.34.47-.718.304-1.364.742-1.906 1.284C1.212 2.296.774 2.942.47 3.66.17 4.378 0 5.17 0 6v12c0 .83.168 1.622.47 2.34.304.718.742 1.364 1.284 1.906.542.542 1.188.98 1.906 1.283.718.302 1.51.47 2.34.47h12c.83 0 1.622-.168 2.34-.47.718-.304 1.364-.742 1.906-1.284.542-.542.98-1.188 1.283-1.906.302-.718.47-1.51.47-2.34V6c0-.83-.168-1.622-.47-2.34-.304-.718-.742-1.364-1.284-1.906-.542-.542-1.188-.98-1.906-1.283C19.622.17 18.83 0 18 0H6z"/>
	  <path fill="#f2f3f5" fill-rule="evenodd" d="M6 1h12c2.787 0 5 2.213 5 5v12c0 2.787-2.213 5-5 5H6c-2.787 0-5-2.213-5-5V6c0-2.787 2.213-5 5-5z" />
      <path fill="#72777A" d="m7.43934,16.56066c0.58579,0.58579 1.53553,0.58579 2.12132,0l8,-8c0.58579,-0.58579 0.58579,-1.53553 0,-2.12132c-0.58579,-0.58579 -1.53553,-0.58579 -2.12132,0c-2.63851,2.66667 -4.09444,4.4464 -6.73295,7.11306l-2.14573,-2.11306c-0.58579,-0.58579 -1.53553,-0.58579 -2.12132,0c-0.58579,0.58579 -0.58579,1.53553 0,2.12132l3,3z"/>
  </g>
</svg>
