<svg width="24" height="24" viewBox="0 0 24 24" xmlns="http://www.w3.org/2000/svg" xmlns:xlink="http://www.w3.org/1999/xlink">
  <title>
    icon_class_24
  </title>
  <defs>
    <rect id="a" x="1" y="1" width="6" height="6" rx="1"/>
    <mask id="j" x="0" y="0" width="6" height="6" fill="#fff">
      <use xlink:href="#a"/>
    </mask>
    <rect id="b" x="9" y="1" width="6" height="6" rx="1"/>
    <mask id="k" x="0" y="0" width="6" height="6" fill="#fff">
      <use xlink:href="#b"/>
    </mask>
    <rect id="c" x="17" y="1" width="6" height="6" rx="1"/>
    <mask id="l" x="0" y="0" width="6" height="6" fill="#fff">
      <use xlink:href="#c"/>
    </mask>
    <rect id="d" x="1" y="9" width="6" height="6" rx="1"/>
    <mask id="m" x="0" y="0" width="6" height="6" fill="#fff">
      <use xlink:href="#d"/>
    </mask>
    <rect id="e" x="9" y="9" width="6" height="6" rx="1"/>
    <mask id="n" x="0" y="0" width="6" height="6" fill="#fff">
      <use xlink:href="#e"/>
    </mask>
    <rect id="f" x="17" y="9" width="6" height="6" rx="1"/>
    <mask id="o" x="0" y="0" width="6" height="6" fill="#fff">
      <use xlink:href="#f"/>
    </mask>
    <rect id="g" x="1" y="17" width="6" height="6" rx="1"/>
    <mask id="p" x="0" y="0" width="6" height="6" fill="#fff">
      <use xlink:href="#g"/>
    </mask>
    <rect id="h" x="9" y="17" width="6" height="6" rx="1"/>
    <mask id="q" x="0" y="0" width="6" height="6" fill="#fff">
      <use xlink:href="#h"/>
    </mask>
    <rect id="i" x="17" y="17" width="6" height="6" rx="1"/>
    <mask id="r" x="0" y="0" width="6" height="6" fill="#fff">
      <use xlink:href="#i"/>
    </mask>
  </defs>
  <g stroke="#72777A" stroke-width="4" fill="none" fill-rule="evenodd">
    <use mask="url(#j)" xlink:href="#a"/>
    <use mask="url(#k)" xlink:href="#b"/>
    <use mask="url(#l)" xlink:href="#c"/>
    <use mask="url(#m)" xlink:href="#d"/>
    <use mask="url(#n)" xlink:href="#e"/>
    <use mask="url(#o)" xlink:href="#f"/>
    <use mask="url(#p)" xlink:href="#g"/>
    <use mask="url(#q)" xlink:href="#h"/>
    <use mask="url(#r)" xlink:href="#i"/>
  </g>
</svg>
