<svg xmlns="http://www.w3.org/2000/svg" height="24" width="24" viewBox="0 0 24 24">
    <path fill="#72777A" fill-rule="evenodd" d="M1 1zm6.857 9H2.142A2.145 2.145 0 0 1 0 7.857V2.143A2.145 2.145 0 0 1 2.142 0h5.715A2.145 2.145 0 0 1 10 2.143v5.714A2.145 2.145 0 0 1 7.857 10zM2.142 2A.146.146 0 0 0 2 2.143v5.714A.146.146 0 0 0 2.142 8h5.715A.147.147 0 0 0 8 7.857V2.143A.147.147 0 0 0 7.857 2H2.142zM1 15zm6.857 9H2.142A2.145 2.145 0 0 1 0 21.857v-5.715A2.145 2.145 0 0 1 2.142 14h5.715A2.145 2.145 0 0 1 10 16.143v5.715A2.145 2.145 0 0 1 7.857 24zm-5.715-8a.145.145 0 0 0-.142.143v5.715a.145.145 0 0 0 .142.142h5.715A.146.146 0 0 0 8 21.857v-5.715A.146.146 0 0 0 7.857 16H2.142zm12.857-1zm6.858 9h-5.715A2.144 2.144 0 0 1 14 21.857v-5.715A2.145 2.145 0 0 1 16.142 14h5.715A2.144 2.144 0 0 1 24 16.142v5.715A2.145 2.145 0 0 1 21.857 24zm-5.715-8a.146.146 0 0 0-.143.143v5.715a.146.146 0 0 0 .143.143h5.715a.146.146 0 0 0 .143-.143v-5.715a.146.146 0 0 0-.143-.143h-5.715zm-3.981-9.818zm5.657 6.182a2.136 2.136 0 0 1-1.516-.626L12.261 7.7a2.144 2.144 0 0 1 0-3.03L16.3.626a2.2 2.2 0 0 1 3.03 0l4.041 4.04a2.144 2.144 0 0 1 0 3.03l-4.041 4.041a2.132 2.132 0 0 1-1.512.627zM17.817 2a.145.145 0 0 0-.1.04l-4.042 4.041a.146.146 0 0 0 0 .2l4.041 4.041a.145.145 0 0 0 .2 0l4.041-4.041a.146.146 0 0 0 0-.2L17.918 2.04a.142.142 0 0 0-.101-.04z"/>
</svg>
