<svg xmlns="http://www.w3.org/2000/svg" height="24" width="24" viewBox="0 0 24 24">
    <path fill="#72777A" fill-rule="evenodd" d="M7 7H5a1 1 0 0 1 0-2h2a1 1 0 0 1 0 2zm5 4H5a1 1 0 0 1 0-2h7a1 1 0 0 1 0 2zm0 4H5a1 1 0 0 1 0-2h7a1 1 0 0 1 0 2z"/>
    <path fill="#72777A" fill-rule="evenodd" d="M17.71 4.29l-4-4A1.007 1.007 0 0 0 13 0H2a2.006 2.006 0 0 0-2 2v20a2.006 2.006 0 0 0 2 2h14a2.006 2.006 0 0 0 2-2V5a1.007 1.007 0 0 0-.29-.71zM13 2.42L15.58 5H13.5a.5.5 0 0 1-.5-.5V2.42zm3 19.08a.5.5 0 0 1-.5.5h-13a.5.5 0 0 1-.5-.5v-19a.5.5 0 0 1 .5-.5h8a.5.5 0 0 1 .5.5V5a2.006 2.006 0 0 0 2 2h2.5a.5.5 0 0 1 .5.5v14z"/>
    <path fill="#72777A" fill-rule="evenodd" d="M12 19H5a1 1 0 0 1 0-2h7a1 1 0 0 1 0 2z"/>
</svg>
