<svg xmlns="http://www.w3.org/2000/svg" height="24" width="24" viewBox="0 0 24 24">
    <g fill="#565a5c" fill-rule="evenodd">
        <path d="M19 0H5C3.9 0 3 .9 3 2v20c0 1.1.9 2 2 2h14c1.1 0 2-.9 2-2V2c0-1.1-.9-2-2-2zm0 21.5c0 .28-.22.5-.5.5h-13c-.28 0-.5-.22-.5-.5v-19c0-.28.22-.5.5-.5h13c.28 0 .5.22.5.5v19z"/>
        <path d="M12 20c-.553 0-1-.445-1-.994v-6.011c0-.55.447-.995 1-.995.553 0 1 .445 1 .994v6.011c0 .55-.447.995-1 .995zm-4 0c-.553 0-1-.44-1-.983v-3.033A.991.991 0 0 1 8 15c.553 0 1 .44 1 .983v3.033A.991.991 0 0 1 8 20zm8 0a1 1 0 0 1-1-1V6a1 1 0 1 1 2 0v13a1 1 0 0 1-1 1zM7 7.5a2.5 2.5 0 1 0 5 0H9.5V5A2.5 2.5 0 0 0 7 7.5z"/>
        <path d="M13 6.5h-2.5V4A2.5 2.5 0 0 1 13 6.5z"/>
    </g>
</svg>
