<svg xmlns="http://www.w3.org/2000/svg" height="24" width="24" viewBox="0 0 24 24">
    <g transform="translate(0 3)" fill="#72777A" fill-rule="evenodd">
        <path d="M21 0H3C1.35 0 0 1.35 0 3v12c0 1.55 1.19 2.83 2.7 2.98.1.01.2.02.3.02h18c.1 0 .2 0 .29-.02.03 0 .06-.01.09-.01A3 3 0 0 0 24 15V3c0-1.65-1.35-3-3-3zm1 13.53l-2.21-4.42c-.25-.5-.69-.87-1.22-1.03A2.24 2.24 0 0 0 18 8c-.35 0-.7.09-1.01.27l-6.41 3.74-2.46-1.67A1.99 1.99 0 0 0 7 10c-.52 0-1.03.2-1.41.59L2 14.18V3c0-.55.45-1 1-1h18c.55 0 1 .45 1 1v10.53z"/>
        <circle cx="11" cy="7" r="2"/>
    </g>
</svg>
