<svg xmlns="http://www.w3.org/2000/svg" height="24" width="24" viewBox="0 0 24 24">
    <g fill="none" fill-rule="evenodd">
        <path d="M20 10a1 1 0 0 1-1 1h-7a1 1 0 0 1 0-2h7a1 1 0 0 1 1 1z" fill="#73787B"/>
        <path d="M12 16.02a1 1 0 0 1-1 1 1.021 1.021 0 0 1-.79-.38l-.04-.06A6.177 6.177 0 0 0 7 14.15 3.663 3.663 0 0 0 6 14v1.02a.976.976 0 0 1-.55.87 1 1 0 0 1-1.05-.09l-4-3a1 1 0 0 1 0-1.6l4-3a.99.99 0 0 1 1.05-.09c.332.164.544.5.55.87V10c2.15 0 5.91 3.1 6 6.02zM20 14a1 1 0 0 1-1 1h-4a1 1 0 0 1 0-2h4a1 1 0 0 1 1 1zm0 4a1 1 0 0 1-1 1h-4a1 1 0 0 1 0-2h4a1 1 0 0 1 1 1zm0-12a1 1 0 0 1-1 1h-8a1 1 0 0 1 0-2h8a1 1 0 0 1 1 1z" fill="#72777A"/>
        <path d="M24 2v20a2.006 2.006 0 0 1-2 2H8a2.006 2.006 0 0 1-2-2v-3a1 1 0 0 1 2 0v2.5a.5.5 0 0 0 .5.5h13a.5.5 0 0 0 .5-.5v-19a.487.487 0 0 0-.49-.5H8.5a.5.5 0 0 0-.5.5V5a1 1 0 1 1-2 0V2a2.006 2.006 0 0 1 2-2h14a2.006 2.006 0 0 1 2 2z" fill="#72777A"/>
    </g>
</svg>
