<svg xmlns="http://www.w3.org/2000/svg" height="24" width="24" viewBox="0 0 24 24">
    <g fill="none" fill-rule="evenodd">
        <path d="M2 12.36v-.03" fill="#73787B" opacity=".47"/>
        <path d="M15.004 8.023H9.006a1.023 1.023 0 1 1 0-2.046h5.997a1.023 1.023 0 0 1 .001 2.046zm-2.999 3.991H9.006a1.014 1.014 0 0 1 0-2.028h2.999a1.014 1.014 0 0 1 0 2.028z" fill="#72777A"/>
        <path fill="#73787B" opacity=".47" d="M12.02 15.99l-.01.01-2.58-1.55z"/>
        <path d="M23.45 9.1L20 7.38V3c0-1.1-.9-2-2-2H6.01c-1.1 0-2 .9-2 2v4.37L.55 9.1c-.35.18-.54.53-.54.9v12c0 1.1.9 2 2 2H22c1.1 0 2-.9 2-2V10c0-.37-.2-.72-.55-.9zm-2.02 1.24l-1.43.85V9.63l1.43.71zM6.01 3H18v9.39l-5.98 3.6-.01.01-2.58-1.55-3.42-2.05V3zm-2 6.62v1.58l-1.44-.86 1.44-.72zM2.01 22v-9.67L18.18 22H2.01zm11.95-4.85l8.03-4.82L22 22l-8.04-4.85z" fill="#72777A"/>
    </g>
</svg>
