<svg xmlns="http://www.w3.org/2000/svg" height="24" width="24" viewBox="0 0 24 24">
    <g fill="#72777A" fill-rule="evenodd">
        <path d="M21.995 18.002a2.027 2.027 0 0 1-1.646-.836 1.505 1.505 0 0 1-.083-.132l-.002.001c-.661-1.051-1.759-1.7-3.27-1.938a2.02 2.02 0 0 1-1.136 1.693c-.595.325-1.528.247-2.127-.253l-4.982-3.986A1.967 1.967 0 0 1 8 11.002c0-.61.281-1.199.751-1.573l4.997-3.999c.623-.466 1.41-.554 2.084-.251a1.993 1.993 0 0 1 1.165 1.822v.247c2.863.942 7.185 3.674 6.997 8.791.001 1.066-.896 1.963-1.999 1.963zm-5.998-5h.035c2.747.098 4.736 1.091 5.915 2.953.238-5.346-5.924-6.918-6.187-6.982a1.002 1.002 0 0 1-.764-.972v-1L10 10.991l4.998 4-.001-.989a.998.998 0 0 1 1-1zm-5.997-2a.026.026 0 0 0-.003-.01l.003.01z"/>
        <path d="M9 15.001c0 .03 0 .07-.01.1 0 .04 0 .08-.01.11a1.99 1.99 0 0 1-1.12 1.58c-.6.32-1.53.25-2.13-.25l-4.98-3.99c-.48-.38-.75-.94-.75-1.55 0-.61.28-1.2.75-1.57l5-4c.62-.47 1.41-.56 2.08-.25.71.31 1.17 1.03 1.17 1.82 0 .55-.45 1-1 1s-1-.45-1-1l-5 3.99 5 4a1 1 0 0 1 2 .01z"/>
    </g>
</svg>
