<svg xmlns="http://www.w3.org/2000/svg" height="24" width="24" viewBox="0 0 24 24">
    <path fill="#72777A" fill-rule="evenodd" d="M16 0H2a2.006 2.006 0 0 0-2 2v20a2.006 2.006 0 0 0 2 2h14a2.006 2.006 0 0 0 2-2V2a2.006 2.006 0 0 0-2-2zm0 21.5a.5.5 0 0 1-.5.5h-13a.5.5 0 0 1-.5-.5v-19a.5.5 0 0 1 .5-.5h13a.5.5 0 0 1 .5.5v19z"/>
    <path fill="#72777A" fill-rule="evenodd" d="M9 20a1 1 0 0 1-1-.994V13a1 1 0 0 1 2 0v6.011A1 1 0 0 1 9 20zm-4 0a.991.991 0 0 1-1-.983v-3.033a1 1 0 0 1 2 0v3.033A.991.991 0 0 1 5 20zm8 0a1 1 0 0 1-1-1V6a1 1 0 0 1 2 0v13a1 1 0 0 1-1 1zM4 7.5a2.5 2.5 0 0 0 5 0H6.5V5A2.5 2.5 0 0 0 4 7.5z"/>
    <path fill="#72777A" fill-rule="evenodd" d="M10 6.5H7.5V4A2.5 2.5 0 0 1 10 6.5z"/>
</svg>
