<svg xmlns="http://www.w3.org/2000/svg" height="24" width="24" viewBox="0 0 24 24">
    <path d="M8.989 24A1.985 1.985 0 0 1 7 22.011v-.247c-2.862-.943-7.182-3.673-6.994-8.79C.005 11.902.906 11 2.015 11a2.02 2.02 0 0 1 1.631.834l.105.165c.667 1.038 1.758 1.679 3.25 1.916a2.025 2.025 0 0 1 1.135-1.703c.572-.309 1.535-.243 2.129.251l4.985 3.988c.475.375.75.945.75 1.562a1.98 1.98 0 0 1-.754 1.563l-4.996 3.999A2.12 2.12 0 0 1 8.989 24zM2.045 13.043c-.231 5.36 5.928 6.932 6.191 6.996l.762.187L9 22.011l5-4.001v-.001L9 14.01v2.035l-1.035-.036c-3.417-.12-5.104-1.676-5.92-2.966zM21.985 13a2.02 2.02 0 0 1-1.631-.834l-.106-.167c-.667-1.036-1.757-1.677-3.249-1.913a2.021 2.021 0 0 1-1.136 1.703c-.572.309-1.538.242-2.129-.252L8.75 7.55A1.979 1.979 0 0 1 8 5.989c0-.614.274-1.184.754-1.564L13.75.427c.624-.465 1.41-.553 2.084-.251A1.986 1.986 0 0 1 17 1.989v.247c2.862.943 7.182 3.674 6.994 8.791.001 1.072-.9 1.973-2.009 1.973zM15 7.953l1.035.037c3.414.121 5.103 1.676 5.918 2.965.232-5.359-5.927-6.93-6.19-6.994l-.762-.187L15 1.989 10 5.99l5 3.999V7.953z" fill="#72777A" fill-rule="evenodd"/>
</svg>
