<svg xmlns="http://www.w3.org/2000/svg" height="24" width="24" viewBox="0 0 24 24">
    <g fill="#72777A" fill-rule="evenodd">
        <path d="M12.07 0H1.93A1.938 1.938 0 0 0 0 1.93v20.14A1.938 1.938 0 0 0 1.93 24h10.14A1.938 1.938 0 0 0 14 22.07V1.93A1.938 1.938 0 0 0 12.07 0zM12 22H2v-7a1 1 0 0 0 1-1v-1a1 1 0 0 0-1-1V2h10v20z"/>
        <rect x="4" y="14.985" rx="1"/>
        <path d="M5 10a1 1 0 0 1-1-1V5a1 1 0 1 1 2 0v4a1 1 0 0 1-1 1zm4 0a1 1 0 0 1-1-1V5a1 1 0 1 1 2 0v4a1 1 0 0 1-1 1z"/>
    </g>
</svg>
