
<svg width="24" height="24" xmlns="http://www.w3.org/2000/svg" x="0px" y="0px"
	 viewBox="0 0 24 24">

<path fill="#565a5c" d="M20.9,4H3.1C1.4,4,0,5.4,0,7.1C0,8,0.4,8.9,1.1,9.5v7.4C1.1,19.1,3,21,5.3,21h13.3c2.3,0,4.2-1.9,4.2-4.2V9.5
	C23.6,8.9,24,8,24,7.1C24,5.4,22.6,4,20.9,4z M20.9,16.8c0,1.2-1,2.2-2.2,2.2H5.3c-1.2,0-2.2-1-2.2-2.2v-6.6h17.8V16.8z M20.9,8.2
	H3.1C2.5,8.2,2,7.7,2,7.1C2,6.5,2.5,6,3.1,6h17.8C21.5,6,22,6.5,22,7.1C22,7.7,21.5,8.2,20.9,8.2z"/>

	<path fill="#565a5c" d="M10,16.2H6c-0.6,0-1-0.4-1-1v-2c0-0.6,0.4-1,1-1h4c0.6,0,1,0.4,1,1v2C11,15.7,10.6,16.2,10,16.2z"/>

</svg>
