<svg xmlns="http://www.w3.org/2000/svg" height="24" width="24" viewBox="0 0 24 24">
    <g fill="none" fill-rule="evenodd">
        <path fill="#73787B" d="M1 1H.9V.9H1z"/>
        <path d="M7.857 10H2.142A2.145 2.145 0 0 1 0 7.857V2.143C0 .961.961 0 2.142 0h5.715C9.039 0 10 .961 10 2.143v5.714A2.145 2.145 0 0 1 7.857 10zM2.142 2A.146.146 0 0 0 2 2.143v5.714c0 .076.066.143.142.143h5.715A.147.147 0 0 0 8 7.857V2.143A.147.147 0 0 0 7.857 2H2.142z" fill="#72777A"/>
        <path fill="#73787B" d="M1 15H.9v-.1H1z"/>
        <path d="M7.857 24H2.142A2.145 2.145 0 0 1 0 21.857v-5.715C0 14.961.961 14 2.142 14h5.715C9.039 14 10 14.961 10 16.143v5.715A2.145 2.145 0 0 1 7.857 24zm-5.715-8a.145.145 0 0 0-.142.143v5.715c0 .076.066.142.142.142h5.715A.146.146 0 0 0 8 21.857v-5.715A.146.146 0 0 0 7.857 16H2.142z" fill="#72777A"/>
        <path fill="#73787B" d="M14.999 15h-.1v-.1h.1z"/>
        <path d="M21.857 24h-5.715A2.144 2.144 0 0 1 14 21.857v-5.715c0-1.182.961-2.143 2.142-2.143h5.715c1.182 0 2.142.961 2.142 2.143v5.715A2.145 2.145 0 0 1 21.857 24zm-5.715-8a.146.146 0 0 0-.143.143v5.715c0 .076.066.143.143.143h5.715a.146.146 0 0 0 .143-.143v-5.715a.146.146 0 0 0-.143-.143h-5.715z" fill="#72777A"/>
        <path fill="#73787B" d="M12.161 6.182h-.1v-.1h.1z"/>
        <path d="M17.818 12.364a2.136 2.136 0 0 1-1.516-.626l-4.041-4.041a2.144 2.144 0 0 1 0-3.03L16.302.626c.808-.808 2.225-.807 3.03 0l4.041 4.04a2.144 2.144 0 0 1 0 3.03l-4.041 4.041a2.132 2.132 0 0 1-1.514.627zM17.817 2a.145.145 0 0 0-.101.04l-4.041 4.041a.146.146 0 0 0 0 .202l4.041 4.041a.145.145 0 0 0 .202 0l4.041-4.041a.146.146 0 0 0 0-.202L17.918 2.04a.142.142 0 0 0-.101-.04z" fill="#72777A"/>
    </g>
</svg>
