<svg xmlns="http://www.w3.org/2000/svg" height="24" width="24" viewBox="0 0 24 24">
    <g transform="translate(2)" fill="#72777A" fill-rule="evenodd">
        <circle cx="5" cy="10" r="1"/>
        <circle cx="5" cy="14" r="1"/>
        <circle cx="5" cy="18" r="1"/>
        <path d="M15.075 11H9.041a1 1 0 1 1 0-2h6.034a1 1 0 1 1 0 2zm0 4H9.041a1 1 0 1 1 0-2h6.034a1 1 0 1 1 0 2zm0 4H9.041a1 1 0 1 1 0-2h6.034a1 1 0 1 1 0 2z"/>
        <path d="M18 2h-3c0-1.1-.9-2-2-2H7C5.9 0 5 .9 5 2H2C.9 2 0 2.9 0 4v18c0 1.1.9 2 2 2h16c1.1 0 2-.9 2-2V4c0-1.1-.9-2-2-2zM7 3.5v-1a.5.5 0 0 1 .5-.5h5a.5.5 0 0 1 .5.499v1a.5.5 0 0 1-.5.501h-5a.5.5 0 0 1-.5-.5zm11 18v.003l-.001.001A.5.5 0 0 1 17.5 22l-.003-.001V22H2.515c-.005 0-.009.003-.015.003a.5.5 0 0 1-.5-.5V4.5a.5.5 0 0 1 .5-.5H5c0 1.1.9 2 2 2h6c1.1 0 2-.9 2-2h2.5a.5.5 0 0 1 .5.5v17z"/>
    </g>
</svg>
