<svg xmlns="http://www.w3.org/2000/svg" height="24" width="24" viewBox="0 0 24 24">
    <path fill="#72777A" fill-rule="evenodd" d="M7 9a2.006 2.006 0 0 1-2-2V6a2.006 2.006 0 0 1 2-2 2.006 2.006 0 0 1 2 2v1a2.006 2.006 0 0 1-2 2zm-2 6.993L9 16a1 1 0 0 0 1-1v-2a3.009 3.009 0 0 0-3-3 3.009 3.009 0 0 0-3 3v2a.994.994 0 0 0 1 .993zM19 16h-6a1 1 0 0 1 0-2h6a1 1 0 0 1 0 2zm0-4h-6a1 1 0 0 1 0-2h6a1 1 0 0 1 0 2zm0-4h-6a1 1 0 0 1 0-2h6a1 1 0 0 1 0 2z"/>
    <path fill="#72777A" fill-rule="evenodd" d="M22 0H2a2.006 2.006 0 0 0-2 2v16a2.006 2.006 0 0 0 2 2h20a2.006 2.006 0 0 0 2-2V2a2.006 2.006 0 0 0-2-2zm0 17.5a.5.5 0 0 1-.5.5h-19a.5.5 0 0 1-.5-.5v-15a.5.5 0 0 1 .5-.5h19a.5.5 0 0 1 .5.5v15z"/>
</svg>
