<svg xmlns="http://www.w3.org/2000/svg" height="24" width="24" viewBox="0 0 24 24">
    <path fill="#72777A" fill-rule="evenodd" d="M16 0H2a2.006 2.006 0 0 0-2 2v20a2.006 2.006 0 0 0 2 2h14a2.006 2.006 0 0 0 2-2V2a2.006 2.006 0 0 0-2-2zm0 21.5a.5.5 0 0 1-.5.5h-13a.5.5 0 0 1-.5-.5v-19a.5.5 0 0 1 .5-.5h13a.5.5 0 0 1 .5.5v19z"/>
    <path fill="#72777A" fill-rule="evenodd" d="M7 10H5a1 1 0 0 1-1-1V5a1 1 0 0 1 1-1h2a1 1 0 0 1 1 1v4a1 1 0 0 1-1 1zm6 6H5a1 1 0 0 1-1-1v-2a1 1 0 0 1 1-1h8a1 1 0 0 1 1 1v2a1 1 0 0 1-1 1zm0-10h-2a1 1 0 0 1-1-1 1 1 0 0 1 1-1h2a1 1 0 0 1 1 1 1 1 0 0 1-1 1zm0 4h-2a1 1 0 0 1-1-1 1 1 0 0 1 1-1h2a1 1 0 0 1 1 1 1 1 0 0 1-1 1zm0 10H5a1 1 0 0 1-1-1 1 1 0 0 1 1-1h8a1 1 0 0 1 1 1 1 1 0 0 1-1 1z"/>
</svg>
