<svg xmlns="http://www.w3.org/2000/svg" height="24" width="24" viewBox="0 0 24 24">
    <path fill="#72777A" fill-rule="evenodd" d="M11.527 24a2.045 2.045 0 0 1-1.475-.59c-.476-.472-.7-.7-.934-.94s-.438-.45-.888-.9a1.971 1.971 0 0 0-.888-.412.594.594 0 0 0-.535.449 3.066 3.066 0 0 1-2.421 2.242 3.386 3.386 0 0 1-2.524-.661 3.356 3.356 0 0 1-1.34-2.216A3.193 3.193 0 0 1 3.191 17.2c.043-.093.1-.235.138-.348l.042-.112a1.3 1.3 0 0 0-.3-.4c-.412-.427-.706-.723-.994-1.015-.318-.325-.632-.639-1.089-1.115-.862-.9-1.654-2.13-.116-3.7l.271-.277C2.04 9.312 2.938 8.4 3.855 7.5a1.693 1.693 0 0 1 1.938-.321 2.065 2.065 0 0 1 .834 1.472 1.628 1.628 0 0 0 1.023 1.575 1.608 1.608 0 0 0 1.754-.4 1.788 1.788 0 0 0 .42-2.347 1.746 1.746 0 0 0-1.381-.711 1.892 1.892 0 0 1-1.529-1.022 2.017 2.017 0 0 1 .486-1.81C7.625 3.6 10.5 0 11.745 0a2.741 2.741 0 0 1 2.116.975c.487.482.763.762 1.041 1.046.264.268.53.54.991 1a1.548 1.548 0 0 0 .733.368.969.969 0 0 0 .314-.639c.055-.163.11-.328.177-.489A3 3 0 0 1 19.87.568a3.475 3.475 0 0 1 3.607 3.038 2.974 2.974 0 0 1-2.594 3.579.417.417 0 0 0-.36.305 1.391 1.391 0 0 0 .379.63c.226.236.349.355.466.469.145.141.283.275.56.57.119.127.275.266.443.416a4.949 4.949 0 0 1 1.573 2.025c.12.384.4 1.283-3.712 5.265a1.913 1.913 0 0 1-1.867.5 2 2 0 0 1-1.014-1.588 1.6 1.6 0 0 0-1.075-1.561 1.618 1.618 0 0 0-1.791.5 1.749 1.749 0 0 0-.272 2.34 1.782 1.782 0 0 0 1.262.628 1.869 1.869 0 0 1 1.629 1.173c.295 1.428-2.507 3.913-3.819 4.625a3.729 3.729 0 0 1-1.758.518zm-4.186-4.838a3.75 3.75 0 0 1 2.3.991c.462.458.689.69.912.92s.445.456.909.915a.962.962 0 0 0 .6-.131 8.538 8.538 0 0 0 2.7-2.275 3.583 3.583 0 0 1-2.136-1.31 3.762 3.762 0 0 1 .518-5.04 3.585 3.585 0 0 1 3.819-.9A3.5 3.5 0 0 1 19.247 15a24.353 24.353 0 0 0 2.67-3.033 6.033 6.033 0 0 0-.882-.9 9.714 9.714 0 0 1-.567-.537c-.243-.259-.364-.377-.493-.5s-.268-.26-.519-.523a2.772 2.772 0 0 1-.806-2.717 2.414 2.414 0 0 1 1.987-1.59c.269-.034.984-.123.852-1.387a1.453 1.453 0 0 0-1.459-1.252 1.375 1.375 0 0 0-1.063.46c-.049.118-.088.239-.128.36a2.633 2.633 0 0 1-1.608 1.9 2.992 2.992 0 0 1-2.746-.846c-.469-.465-.741-.742-1.009-1.015s-.544-.55-1.022-1.02a1.2 1.2 0 0 0-.512-.381 18.473 18.473 0 0 0-2.758 2.844 3.535 3.535 0 0 1 2.289 1.482 3.793 3.793 0 0 1-.837 5.055 3.579 3.579 0 0 1-3.75.673A3.526 3.526 0 0 1 4.732 9.44c-.707.7-1.433 1.446-2.159 2.188l-.273.277a1.172 1.172 0 0 0-.3.4 3.16 3.16 0 0 0 .431.525c.447.466.755.777 1.068 1.094.294.3.594.6 1.013 1.035a2.3 2.3 0 0 1 .73 2.487l-.042.101a2.078 2.078 0 0 1-1.612 1.615A1.246 1.246 0 0 0 2.5 20.716a1.349 1.349 0 0 0 .555.875 1.337 1.337 0 0 0 1.016.286 1.079 1.079 0 0 0 .806-.806 2.565 2.565 0 0 1 1.873-1.812 1.736 1.736 0 0 1 .591-.097z"/>
</svg>
