<svg xmlns="http://www.w3.org/2000/svg" height="24" width="24" viewBox="0 0 24 24">
    <g fill="#72777A" fill-rule="evenodd">
        <path d="M20 2h-4v-.85C16 .52 15.48 0 14.85 0h-5.7C8.52 0 8 .52 8 1.15V2H4c-1.1 0-2 .9-2 2 0 .74.4 1.38 1 1.73v14.02A4.26 4.26 0 0 0 7.25 24h9.5A4.26 4.26 0 0 0 21 19.75V5.73c.6-.35 1-.99 1-1.73 0-1.1-.9-2-2-2zm-1 17.75c0 1.24-1.01 2.25-2.25 2.25h-9.5C6.01 22 5 20.99 5 19.75V6h14v13.75z"/>
        <path d="M8 20.022a1 1 0 0 1-1-1v-10a1 1 0 1 1 2 0v10a1 1 0 0 1-1 1zm8 0a1 1 0 0 1-1-1v-10a1 1 0 1 1 2 0v10a1 1 0 0 1-1 1zm-4 0a1 1 0 0 1-1-1v-10a1 1 0 1 1 2 0v10a1 1 0 0 1-1 1z"/>
    </g>
</svg>
