<svg xmlns="http://www.w3.org/2000/svg" height="24" width="24" viewBox="0 0 24 24">
    <path fill="#72777A" fill-rule="evenodd" d="M19 0h-1a5 5 0 0 0-5 5v3H2a2.006 2.006 0 0 0-2 2v11a2.006 2.006 0 0 0 2 2h14a2.006 2.006 0 0 0 2-2V10a2.006 2.006 0 0 0-2-2h-1V5a3.009 3.009 0 0 1 3-3h1a3.009 3.009 0 0 1 3 3v6a1 1 0 0 0 2 0V5a5 5 0 0 0-5-5zm-3.5 10a.5.5 0 0 1 .5.5v10a.5.5 0 0 1-.5.5h-13a.5.5 0 0 1-.5-.5v-10a.5.5 0 0 1 .5-.5h13z"/>
    <path fill="#72777A" fill-rule="evenodd" d="M11 14a2 2 0 0 1-1 1.73V18a1 1 0 0 1-2 0v-2.27A2 2 0 1 1 11 14z"/>
</svg>
