<svg xmlns="http://www.w3.org/2000/svg" height="24" width="24" viewBox="0 0 24 24">
    <path d="M23 11h-.1a4.988 4.988 0 0 0-4.5-3.98l5.31-5.31c.39-.39.39-1.03 0-1.42-.39-.39-1.03-.39-1.42 0l-8 8C13.58 8.1 12.81 8 12 8c-.91 0-1.78.12-2.57.36A5 5 0 0 0 1.1 11H1c-.55 0-1 .45-1 1s.45 1 1 1h.1a4.988 4.988 0 0 0 4.5 3.98L.29 22.29c-.39.39-.39 1.03 0 1.42.2.19.45.29.71.29.26 0 .51-.1.71-.29L13.02 12.4c.2 2.57 2.36 4.6 4.98 4.6a5 5 0 0 0 4.9-4h.1c.55 0 1-.45 1-1s-.45-1-1-1zM3 12c0-1.65 1.35-3 3-3s3 1.35 3 3-1.35 3-3 3-3-1.35-3-3zm7.98-.4c-.04-.52-.16-1.01-.34-1.47a7.384 7.384 0 0 1 1.92-.11l-1.58 1.58zM18 15c-1.65 0-3-1.35-3-3s1.35-3 3-3 3 1.35 3 3-1.35 3-3 3z" fill="#72777A" fill-rule="evenodd"/>
</svg>
