<svg xmlns="http://www.w3.org/2000/svg" height="24" width="24" viewBox="0 0 24 24">
    <g fill="#72777A" fill-rule="evenodd">
        <path d="M18.783 2L22 5.227V22H2V2h16.783zm.55-2H1.867C.84 0 0 .853 0 1.907v20.187C0 23.147.84 24 1.867 24h20.267C23.16 24 24 23.147 24 22.093V4.667a.628.628 0 0 0-.2-.467l-3.987-4a.676.676 0 0 0-.48-.2z"/>
        <path d="M15 8H5c-.55 0-1-.45-1-1V5c0-.55.45-1 1-1h10c.55 0 1 .45 1 1v2c0 .55-.45 1-1 1zm-3 4c1.654 0 3 1.346 3 3s-1.346 3-3 3-3-1.346-3-3 1.346-3 3-3zm0-2a5 5 0 1 0 .001 10.001A5 5 0 0 0 12 10z"/>
    </g>
</svg>
