<svg xmlns="http://www.w3.org/2000/svg" height="24" width="24" viewBox="0 0 24 24">
    <g transform="translate(0 5)" fill="#72777A" fill-rule="evenodd">
        <path d="M14.133 2a2.312 2.312 0 0 1 2.311 2.288v.33l4.067-1.452a1.16 1.16 0 0 1 .378-.066c.23.002.454.071.645.2.291.208.464.543.466.9v6.6a1.123 1.123 0 0 1-.489.913 1.146 1.146 0 0 1-1.044.11l-4.022-1.639v.528A2.312 2.312 0 0 1 14.133 13H4.311A2.312 2.312 0 0 1 2 10.712V4.288A2.312 2.312 0 0 1 4.311 2h9.822zm0-2H4.311A4.3 4.3 0 0 0 0 4.288v6.424A4.3 4.3 0 0 0 4.311 15h9.822a4.318 4.318 0 0 0 3.7-2.09l1.878.765a3.151 3.151 0 0 0 2.877-.275l.033-.021.032-.022A3.12 3.12 0 0 0 24 10.8V4.2a3.124 3.124 0 0 0-1.294-2.522l-.035-.026-.036-.024a3.136 3.136 0 0 0-2.8-.344l-2.047.731A4.317 4.317 0 0 0 14.133 0z"/>
        <circle cx="5" cy="5" r="1"/>
    </g>
</svg>
