<svg width="30" height="30" xmlns="http://www.w3.org/2000/svg" viewBox="0 0 30 30">

<path fill="#565a5c" d="M10.11,16v2h-4V16h4m0-1h-4a1,1,0,0,0-1,1v2a1,1,0,0,0,1,1h4a1,1,0,0,0,1-1V16a1,1,0,0,0-1-1Z"/>
<path fill="#565a5c" d="M26.89,7H3.11A3.111,3.111,0,0,0,0,10.1a3.063,3.063,0,0,0,1.11,2.36v8.35A4.215,4.215,0,0,0,5.33,25H24.67a4.215,4.215,0,0,0,4.22-4.19V12.46A3.063,3.063,0,0,0,30,10.1,3.111,3.111,0,0,0,26.89,7Zm0,13.81A2.215,2.215,0,0,1,24.67,23H5.33a2.215,2.215,0,0,1-2.22-2.19V13.19H26.89Zm0-9.62H3.11A1.1,1.1,0,1,1,3.11,9H26.89a1.1,1.1,0,1,1,0,2.19Z"/></svg>
