<svg width="30" height="30" xmlns="http://www.w3.org/2000/svg" viewBox="0 0 30 30">

<path fill="#565a5c" d="M19.941,18.245a1.022,1.022,0,0,1,.725.3L27.7,25.58a1.028,1.028,0,0,1,0,1.45l-.671.671a1.028,1.028,0,0,1-1.45,0l-7.035-7.035a1.028,1.028,0,0,1,0-1.45l.671-.671a1.022,1.022,0,0,1,.725-.3m0-2a3,3,0,0,0-2.139.885l-.671.671a3.029,3.029,0,0,0,0,4.278l7.035,7.035a3.028,3.028,0,0,0,4.278,0l.671-.671a3.029,3.029,0,0,0,0-4.278L22.08,17.13a3,3,0,0,0-2.139-.885Z"/>
<path fill="#565a5c" d="M10.059,18.245a1.022,1.022,0,0,1,.725.3l.671.671a1.028,1.028,0,0,1,0,1.45L4.42,27.7a1.028,1.028,0,0,1-1.45,0L2.3,27.03a1.028,1.028,0,0,1,0-1.45l7.035-7.035a1.022,1.022,0,0,1,.725-.3m0-2a3,3,0,0,0-2.139.885L.885,24.165a3.029,3.029,0,0,0,0,4.278l.671.671a3.028,3.028,0,0,0,4.278,0L12.87,22.08a3.029,3.029,0,0,0,0-4.278L12.2,17.13a3,3,0,0,0-2.139-.885Z"/>
<path fill="#565a5c" d="M15,30a14.927,14.927,0,0,0,5.976-1.246l-1.547-1.547a12.764,12.764,0,0,1-8.858,0L9.024,28.754A14.927,14.927,0,0,0,15,30Z"/>
<path fill="#565a5c" d="M27.79,7.16l1.33-1.33a3.036,3.036,0,0,0,0-4.27L28.44.88a3.03,3.03,0,0,0-4.27,0L22.84,2.21a15.011,15.011,0,0,0-15.68,0L5.83.88a3.03,3.03,0,0,0-4.27,0l-.68.68a3.036,3.036,0,0,0,0,4.27L2.21,7.16a14.985,14.985,0,0,0-.964,13.815l1.547-1.547A12.855,12.855,0,0,1,3.68,8.63a12.243,12.243,0,0,1,1.13-1.7A13.286,13.286,0,0,1,6.93,4.81a12.243,12.243,0,0,1,1.7-1.13,12.916,12.916,0,0,1,12.74,0,12.243,12.243,0,0,1,1.7,1.13,13.286,13.286,0,0,1,2.12,2.12,12.243,12.243,0,0,1,1.13,1.7,12.855,12.855,0,0,1,.887,10.8l1.547,1.547A14.985,14.985,0,0,0,27.79,7.16ZM3.39,5.51,2.3,4.42a1.026,1.026,0,0,1,0-1.45l.67-.67a1.026,1.026,0,0,1,1.45,0L5.51,3.39A14.165,14.165,0,0,0,3.39,5.51Zm23.22,0a14.162,14.162,0,0,0-2.12-2.12L25.58,2.3a1.026,1.026,0,0,1,1.45,0l.67.67a1.026,1.026,0,0,1,0,1.45Z"/></svg>
