<svg xmlns="http://www.w3.org/2000/svg" height="80" width="80" viewBox="0 0 80 80">
  <g style="isolation:isolate;">
    <g>
      <path d="M29.404 23.777L15.62 61.647l13.315-5.16L35.818 69l13.785-37.87-20.2-7.353z" style="fill:#e5d64f;"></path>
      <g style="opacity:0.4;mix-blend-mode:lighten;">
        <path d="M25.936 56.488l-9.823 3.807-.493 1.353 10.842-4.202-.526-.958zM29.404 23.777l-.35.964 17.55 6.388-12.59 34.59L35.817 69l13.785-37.872-20.2-7.35z" style="fill:#fff;"></path>
      </g>
      <path d="M38.5 27.088l-11.103 4.04L38.5 61.632l1.5-4.12-9.603-26.384L40 27.634l-1.5-.546z" style="opacity:0.1;mix-blend-mode:multiply;"></path>
      <path d="M29.404 23.777L15.62 61.647l13.315-5.16L35.818 69l13.785-37.87-20.2-7.353z" style="fill:none;stroke:#565a5c;stroke-linecap:round;stroke-linejoin:round;stroke-width:2px;"></path>
      <path d="M50.596 23.777l13.784 37.87-13.315-5.16L44.182 69 30.398 31.13l20.198-7.353z" style="fill:#feed58;"></path>
      <g style="opacity:0.4;mix-blend-mode:lighten;">
        <path d="M60.887 60.295l3.493 1.353-13.784-37.87-2.65.963 12.94 35.555zM48.064 56.488l-5.077 9.23L44.182 69l6.356-11.554-2.474-.958z" style="fill:#fff;"></path>
      </g>
      <path d="M50.596 23.777l13.784 37.87-13.315-5.16L44.182 69 30.398 31.13l20.198-7.353z" style="fill:none;stroke:#565a5c;stroke-linecap:round;stroke-linejoin:round;stroke-width:2px;"></path>
      <path d="M57.265 31.464a6.706 6.706 0 0 0-3.425-5.815 6.648 6.648 0 0 0-8.224-8.224A6.706 6.706 0 0 0 39.8 14a6.706 6.706 0 0 0-5.815 3.426 6.7 6.7 0 0 0-6.534 1.69 6.706 6.706 0 0 0-1.69 6.533 6.65 6.65 0 0 0 0 11.63 6.706 6.706 0 0 0 1.69 6.533 6.705 6.705 0 0 0 6.536 1.687 6.707 6.707 0 0 0 5.814 3.428 6.707 6.707 0 0 0 5.816-3.428 6.648 6.648 0 0 0 8.224-8.223 6.706 6.706 0 0 0 3.425-5.813z" class="cls-5" style="opacity:0.1;mix-blend-mode:multiply;"></path>
      <path  d="M57.265 28.464a6.706 6.706 0 0 0-3.425-5.815 6.648 6.648 0 0 0-8.224-8.224A6.706 6.706 0 0 0 39.8 11a6.706 6.706 0 0 0-5.815 3.426 6.7 6.7 0 0 0-6.534 1.69 6.706 6.706 0 0 0-1.69 6.533 6.65 6.65 0 0 0 0 11.63 6.706 6.706 0 0 0 1.69 6.533 6.705 6.705 0 0 0 6.536 1.687 6.707 6.707 0 0 0 5.814 3.428 6.707 6.707 0 0 0 5.816-3.428 6.648 6.648 0 0 0 8.224-8.223 6.706 6.706 0 0 0 3.425-5.813z" style="fill:#86509e;"></path>
      <g style="opacity:0.4;mix-blend-mode:lighten;">
        <path d="M30.986 42.5c-.11.03-.224.044-.335.07.144.032.288.053.432.076-.03-.046-.067-.093-.096-.146zM42.616 14.426a6.866 6.866 0 0 1 2.9-.146A6.69 6.69 0 0 0 39.8 11a6.548 6.548 0 0 0-1.5.187 6.76 6.76 0 0 1 4.316 3.24zM31.083 14.28c-.144.022-.29.043-.43.076.11.025.224.04.334.07.028-.05.065-.097.096-.147zM42.616 42.5a6.762 6.762 0 0 1-4.316 3.242 6.548 6.548 0 0 0 1.5.187 6.69 6.69 0 0 0 5.72-3.28 6.878 6.878 0 0 1-2.904-.15zM57.265 28.464a6.706 6.706 0 0 0-3.425-5.815 6.63 6.63 0 0 0-7.89-8.293 6.558 6.558 0 0 1 3.2 1.76 6.706 6.706 0 0 1 1.69 6.533 6.65 6.65 0 0 1 0 11.63 6.706 6.706 0 0 1-1.69 6.534 6.568 6.568 0 0 1-3.2 1.76 6.63 6.63 0 0 0 7.89-8.294 6.706 6.706 0 0 0 3.425-5.816z" style="fill:#fff;"></path>
      </g>
      <circle cx="39.801" cy="28.464" r="6.717" style="fill:#d3e057;"></circle>
      <path d="M39.8 21.747a6.718 6.718 0 0 0-1.5.174 6.71 6.71 0 0 1 0 13.087 6.715 6.715 0 1 0 1.5-13.26z" style="opacity:0.4;mix-blend-mode:lighten;fill:#fff;"></path>
      <circle cx="39.801" cy="28.464" r="6.717" style="stroke:#565a5c;stroke-linecap:round;stroke-linejoin:round;stroke-width:2px;fill:#feed58;"></circle>
      <path d="M57.265 28.464a6.706 6.706 0 0 0-3.425-5.815 6.648 6.648 0 0 0-8.224-8.224A6.706 6.706 0 0 0 39.8 11a6.706 6.706 0 0 0-5.815 3.426 6.7 6.7 0 0 0-6.534 1.69 6.706 6.706 0 0 0-1.69 6.533 6.65 6.65 0 0 0 0 11.63 6.706 6.706 0 0 0 1.69 6.533 6.705 6.705 0 0 0 6.536 1.687 6.707 6.707 0 0 0 5.814 3.428 6.707 6.707 0 0 0 5.816-3.428 6.648 6.648 0 0 0 8.224-8.223 6.706 6.706 0 0 0 3.425-5.813z" style="fill:none;stroke:#565a5c;stroke-linecap:round;stroke-linejoin:round;stroke-width:2px;"></path>
    </g>
  </g>
</svg>
