<svg width="18" height="18" viewBox="0 0 18 18" xmlns="http://www.w3.org/2000/svg"><path d="M9 17c4.418 0 8-3.582 8-8s-3.582-8-8-8-8 3.582-8 8 3.582 8 8 8zM6 4.778c.177-.153.37-.3.58-.438.212-.138.44-.26.684-.36.244-.104.51-.185.795-.244.285-.06.595-.088.927-.088.453 0 .865.06 1.237.184.37.123.69.3.955.527.264.227.47.503.615.826.146.323.22.685.22 1.085 0 .39-.058.727-.173 1.012-.114.284-.257.532-.43.742-.17.21-.36.392-.564.546l-.58.435c-.183.136-.34.27-.473.4-.133.13-.212.278-.238.442l-.18 1.123H8.06l-.133-1.254c-.032-.24.003-.452.105-.634.1-.182.236-.35.405-.5.17-.152.358-.298.566-.44.208-.14.403-.294.585-.46.182-.167.334-.354.456-.562.122-.207.184-.455.184-.742 0-.184-.036-.35-.106-.496-.07-.146-.167-.272-.292-.377-.125-.105-.275-.186-.45-.242-.173-.056-.36-.085-.564-.085-.297 0-.548.032-.753.096-.205.065-.38.136-.523.216-.143.08-.263.15-.362.215-.1.064-.187.096-.265.096-.188 0-.323-.076-.406-.23L6 4.78zm1.474 9.068c0-.16.03-.31.09-.453.06-.144.142-.267.246-.37.104-.102.228-.184.374-.246.146-.06.302-.092.468-.092.166 0 .32.03.464.092.143.062.268.144.374.246.107.103.192.226.254.37.062.143.094.294.094.453 0 .164-.032.317-.094.458-.062.14-.147.263-.254.365-.106.102-.23.183-.374.242-.143.06-.298.088-.464.088-.166 0-.322-.03-.468-.088-.146-.06-.27-.14-.374-.243-.104-.103-.186-.225-.246-.366-.06-.14-.09-.294-.09-.458z" fill="#72777A" fill-rule="evenodd"/></svg>