<svg width="18" height="18" viewBox="0 0 18 18" xmlns="http://www.w3.org/2000/svg">
  <path d="M13.8 14c-.4 1.2-1.5 2-2.8 2s-2.4-.8-2.8-2H1c-.6 0-1-.4-1-1s.4-1 1-1h7.2c.4-1.2 1.5-2 2.8-2s2.4.8 2.8 2H17c.6 0 1 .4 1 1s-.4 1-1 1h-3.2zm-4-8C9.4 7.2 8.3 8 7 8s-2.4-.8-2.8-2H1c-.6 0-1-.4-1-1s.4-1 1-1h3.2C4.6 2.8 5.7 2 7 2s2.4.8 2.8 2H17c.6 0 1 .4 1 1s-.4 1-1 1H9.8zM7 6c.6 0 1-.4 1-1s-.4-1-1-1-1 .4-1 1 .4 1 1 1zm4 8c.6 0 1-.4 1-1s-.4-1-1-1-1 .4-1 1 .4 1 1 1z" fill="#72777A" fill-rule="evenodd"/>
</svg>
